# xmcd
# 
# Track frame offsets:
#     150
#     2822
#     21602
#     30737
#     46932
#     61000
#     81930
#     95135
#     108572
#     126100
#     144977
#     171280
#     188230
#     204547
#     227417
# 
# Disc length: 3367
# 
# Revision: 5
# Processed by: cddbd v1.5.2PL0 Copyright (c) Steve Scherf et al.
# Submitted via: fre:ac v1.0.31
# 
DISCID=ca0d250f
DTITLE=Kitaro - Ancient
DYEAR=2001
DGENRE=New Age
TTITLE0=Prologue
TTITLE1=Main Theme NILE
TTITLE2=Ancient Of Wind
TTITLE3=Ritual Dance
TTITLE4=Water Of Mystery
TTITLE5=Tumba Dance
TTITLE6=Wave From Ancient
TTITLE7=Spirit Of Harp
TTITLE8=Great Pyramid
TTITLE9=Mysterious Triangle
TTITLE10=ITONAMI
TTITLE11=Unicorn
TTITLE12=Crystal Sand
TTITLE13=Dholavira
TTITLE14=End Theme BEYOND
EXTD=
EXTT0=
EXTT1=
EXTT2=
EXTT3=
EXTT4=
EXTT5=
EXTT6=
EXTT7=
EXTT8=
EXTT9=
EXTT10=
EXTT11=
EXTT12=
EXTT13=
EXTT14=
PLAYORDER=
